<svg xmlns="http://www.w3.org/2000/svg" viewBox="0 0 258.12 305.17"><defs><style>.cls-1{fill:#fff;}</style></defs><title>Asset 3</title><g id="Layer_2" data-name="Layer 2"><g id="Layer_2-2" data-name="Layer 2"><path class="cls-1" d="M116,.64C49.53,7.2-.09,62.39,0,129.24a127.48,127.48,0,0,0,28.34,80.49l.62.77c1,1.21,2,2.41,3,3.59l.43.53c2.88,3.46,5.6,7,8.17,10.39L54.1,244.93c3.34,5.44,6.31,10.67,8.94,15.62,5.91,11.14,9.5,32.12,10.73,44.62H184.4c1.24-12.5,4.76-33.51,10.67-44.68,2.63-4.92,5.57-10.15,8.91-15.56l13.64-20.08c2.54-3.4,5.23-6.84,8-10.27l.43-.49c1-1.18,2-2.38,3-3.59l.62-.77a127.51,127.51,0,0,0,28.37-80.65A129.21,129.21,0,0,0,116,.64Z"/></g></g></svg>